<?xml version="1.0" encoding="UTF-8"?>
<svg width="20px" height="20px" viewBox="0 0 20 20" version="1.1" xmlns="http://www.w3.org/2000/svg" xmlns:xlink="http://www.w3.org/1999/xlink">
    <title>returnscenter_img_logo</title>
    <g id="returnscenter_img_logo" stroke="none" stroke-width="1" fill="none" fill-rule="evenodd">
        <g id="returnscenter_glyph_whitebg">
            <g id="编组-2" transform="translate(0.000000, 0.018021)">
                <path d="M9.99794745,0.0224719101 C13.0664801,0.0224719101 15.9051906,1.42177967 17.7815175,3.76509407 L17.9708017,4.01000337 C18.0045696,4.04904182 18.036872,4.08993649 18.0675677,4.13266437 C18.4307865,4.63825757 18.7476936,5.17924314 19.0142358,5.75084464 C21.3462144,10.7512638 19.1920451,16.6945543 14.1971584,19.0234648 C11.3168545,20.3665725 8.02547776,20.2448663 5.27459756,18.7732392 C4.43896967,18.3262068 4.12564319,17.2867586 4.57476329,16.4515665 C5.02388338,15.6163745 6.06537741,15.301709 6.9010053,15.7487414 C8.7088204,16.7158608 10.8611554,16.7953742 12.7480796,15.915579 C16.0191188,14.3904278 17.4325526,10.490805 15.8994377,7.20337476 C15.7450686,6.87232919 15.5657559,6.5577875 15.3631655,6.26136533 L15.2749207,6.13544132 C15.2680769,6.12669904 15.2658252,6.12391936 15.2635807,6.1211309 L15.2266161,6.07354949 C13.9969762,4.43314824 12.0799381,3.4515802 9.99794745,3.4515802 C6.38866855,3.4515802 3.45935403,6.388642 3.45935403,10.0158729 C3.45935403,10.3812355 3.48892132,10.7421055 3.54723261,11.0963105 L3.5739806,11.2476983 C3.74967217,12.1782532 3.13603547,13.0747232 2.20338467,13.2500199 C1.27073387,13.4253167 0.372244852,12.8130589 0.196553286,11.882504 C0.0810759447,11.2708752 0.0225225225,10.6466712 0.0225225225,10.0158729 C0.0225225225,4.49854206 4.48678586,0.0224719101 9.99794745,0.0224719101 Z" id="形状结合" fill="#5CE6B6" fill-rule="nonzero"></path>
                <ellipse id="椭圆形" fill="#17C98C" cx="6.07089736" cy="17.2716442" rx="1.747851" ry="1.74374056"></ellipse>
            </g>
            <path d="M5.85494105,8.77217239 C5.88691938,8.77217239 5.91859302,8.77838625 5.94820101,8.79046851 L8.91693385,10.0019316 C9.28313693,10.1513696 9.5224894,10.5075576 9.5224894,10.903078 L9.5224894,13.7497418 C9.5224894,13.8860639 9.41197853,13.9965747 9.27565646,13.9965747 C9.24367813,13.9965747 9.21200448,13.9903609 9.1823965,13.9782786 L6.21366365,12.7668155 C5.84746058,12.6173775 5.60810811,12.2611895 5.60810811,11.8656691 L5.60810811,9.01900533 C5.60810811,8.88268326 5.71861898,8.77217239 5.85494105,8.77217239 Z M14.1405213,8.77217239 C14.2768434,8.77217239 14.3873543,8.88268326 14.3873543,9.01900533 L14.3873543,9.01900533 L14.3873543,11.8656691 C14.3873543,12.2611895 14.1480018,12.6173775 13.7817987,12.7668155 L13.7817987,12.7668155 L10.8130659,13.9782786 C10.7834579,13.9903609 10.7517842,13.9965747 10.7198059,13.9965747 C10.5834838,13.9965747 10.472973,13.8860639 10.472973,13.7497418 L10.472973,13.7497418 L10.472973,10.903078 C10.472973,10.5075576 10.7123254,10.1513696 11.0785285,10.0019316 L11.0785285,10.0019316 L14.0472614,8.79046851 C14.0768693,8.77838625 14.108543,8.77217239 14.1405213,8.77217239 Z M10.4369303,6.17118579 L13.7124328,7.50263022 C13.827348,7.54934157 13.8826381,7.68036575 13.8359268,7.79528091 C13.8130526,7.85155396 13.7683609,7.89616254 13.7120453,7.91893192 L10.4349282,9.24392914 C10.155909,9.35674161 9.843975,9.35674161 9.56495579,9.24392914 L6.28783869,7.91893192 C6.17283677,7.87243458 6.11730283,7.74151356 6.16380017,7.62651164 C6.18656955,7.5701961 6.23117813,7.5255044 6.28745119,7.50263022 L9.56295369,6.17118579 C9.84314736,6.05729111 10.1567367,6.05729111 10.4369303,6.17118579 Z" id="形状结合" fill="#17C98C"></path>
        </g>
    </g>
</svg>